<svg width="35" height="28" viewBox="0 0 35 28" fill="none" xmlns="http://www.w3.org/2000/svg">
    <path d="M28.2204 19.2898C27.4991 18.7076 26.143 17.9692 24.6897 16.7899L24.1885 18.2421C24.1034 18.4901 23.8326 18.6213 23.5855 18.5355C23.5599 18.5269 23.5362 18.5158 23.5132 18.5032C23.3132 18.3946 23.2146 18.1548 23.2914 17.9328L23.8121 16.4234C23.8691 16.2583 23.8108 16.0293 23.6845 15.9094C23.6136 15.8411 23.5426 15.7721 23.471 15.7018C23.3467 15.5794 23.2012 15.6118 23.1445 15.7765L22.8815 16.5377C22.7964 16.7855 22.5259 16.9163 22.2783 16.8315C22.2529 16.8224 22.2288 16.8122 22.2057 16.7997C22.0061 16.6912 21.9076 16.4515 21.9842 16.2288L22.417 14.9745C22.4743 14.8089 22.4292 14.5674 22.3195 14.4308C22.2422 14.3357 22.1661 14.2383 22.0906 14.1389C21.9845 14.0001 21.8555 14.0194 21.799 14.1847L21.5752 14.833C21.4899 15.0813 21.2195 15.2128 20.972 15.1268C20.9467 15.1177 20.9226 15.1081 20.8996 15.0957C20.7 14.9872 20.6019 14.7466 20.6783 14.5243L21.1388 13.19C21.1963 13.0251 21.1692 12.7699 21.0818 12.6192C20.9997 12.4748 20.9185 12.3268 20.8392 12.1763C20.7577 12.0223 20.6484 12.0289 20.5914 12.1941L20.2687 13.1287C20.1836 13.3766 19.9135 13.5077 19.6659 13.4217C19.6401 13.4134 19.6161 13.4028 19.5936 13.3906C19.3935 13.2819 19.2952 13.0417 19.3723 12.8192L20.1726 10.5005C20.1414 10.3604 20.1152 10.2259 20.0986 10.1125C19.956 9.15263 19.6066 7.3527 18.923 6.59375C18.2069 5.79976 17.1497 6.05292 16.675 6.5625C16.437 6.819 16.3021 7.38646 16.2385 7.73014C16.1992 7.94336 16.1836 8.19113 16.2378 8.43187C16.3141 8.77268 16.2578 9.05902 15.916 9.12953C15.1149 9.29782 13.6501 9.52334 12.2391 9.32002C9.45777 8.91908 9.69383 7.51771 9.69383 7.51771C9.69383 7.51771 10.0833 5.5793 9.58755 4.53558C9.43813 4.2198 8.95964 3.87583 8.62316 3.78409C8.50332 3.75225 8.38445 3.73906 8.26666 3.73458C7.86868 4.90328 7.2693 7.91995 9.85923 11.5202C13.2175 16.1919 22.0457 21.5557 23.71 22.5421C23.8605 22.6314 23.8481 22.6586 23.6832 22.6023C22.4752 22.1876 17.8415 20.4932 13.8601 17.6528C8.96737 14.1601 4.96193 10.0296 6.00708 5.09458C5.9305 5.17321 5.85848 5.24668 5.79398 5.30856C5.24149 5.84003 4.82035 6.16509 4.02275 7.53983C3.84794 7.8423 3.46984 8.23744 3.20551 8.46619C2.88923 8.73898 2.47616 9.17176 2.11759 9.78879C1.76054 10.4031 1.47136 10.9365 1.27486 11.31C1.11221 11.619 1.07831 12.1423 1.25813 12.4418C1.386 12.6566 1.56356 12.9013 1.79998 13.1214C2.05557 13.36 2.44184 13.7479 2.68412 14.0003C2.7887 14.1096 2.91744 14.2239 3.07214 14.3301C3.36054 14.5276 3.74013 14.6807 3.87028 14.7613C4.00064 14.8415 4.0713 14.9703 4.02822 15.0496C3.98513 15.1289 4.11078 15.2801 4.30907 15.3878C4.50737 15.4955 4.7703 15.5303 4.8959 15.4667C5.02181 15.4026 5.20696 15.3959 5.30922 15.4514C5.41153 15.507 5.44963 15.6356 5.39428 15.7375C5.33873 15.8397 5.44372 16.0042 5.62938 16.105C5.81505 16.2059 6.06467 16.2277 6.18766 16.1527C6.31083 16.0796 6.48886 16.0613 6.58485 16.1134C6.68037 16.1653 6.7671 16.3268 6.7784 16.4737C6.78995 16.621 6.93391 16.8137 7.1002 16.9041C7.2665 16.9944 7.49838 17.0124 7.61762 16.9453C7.73722 16.8777 7.88726 16.9592 7.9529 17.1274C8.01903 17.2958 8.25426 17.531 8.47777 17.6524C8.70128 17.7738 8.94545 17.8196 9.0225 17.754C9.09934 17.6877 9.25544 17.6851 9.37079 17.7478C9.48568 17.8102 9.59479 17.9564 9.61324 18.0749C9.63218 18.1927 9.83821 18.3441 10.073 18.4146C10.3084 18.4841 10.5966 18.4725 10.7166 18.389C10.8367 18.3054 10.9677 18.3491 11.0089 18.487C11.0487 18.6255 11.2388 18.8566 11.4333 19.0025C11.6266 19.1495 11.9006 19.2511 12.0447 19.2295C12.1886 19.2085 12.3796 19.2522 12.4715 19.3259C12.563 19.4013 12.5955 19.5392 12.5433 19.6352C12.4909 19.7316 12.6255 19.9051 12.8427 20.023C13.0603 20.1413 13.3266 20.2194 13.4386 20.1968C13.5499 20.1745 13.7199 20.2195 13.8179 20.2979C13.9163 20.3757 13.9678 20.4914 13.9331 20.5553C13.8984 20.6192 13.9791 20.7296 14.1133 20.8025C14.2481 20.8757 14.4675 20.9413 14.6038 20.9494C14.7403 20.957 14.9076 21.0077 14.9772 21.0624C15.0474 21.1169 15.0729 21.2182 15.0344 21.289C14.9963 21.3592 15.2142 21.5511 15.521 21.7178L15.5674 21.743C15.8747 21.9099 16.1683 21.9615 16.2236 21.8596C16.2792 21.7574 16.4126 21.7224 16.5208 21.7812C16.6294 21.8402 16.6724 21.9716 16.6171 22.0734C16.5615 22.1757 16.7341 22.3768 17.0026 22.5227C17.2712 22.6686 17.613 22.7807 17.7665 22.7732C17.9199 22.7648 18.0911 22.8578 18.1486 22.9807C18.206 23.1028 18.4969 23.3344 18.7974 23.4977C19.098 23.661 19.433 23.749 19.5455 23.6946C19.658 23.64 19.8517 23.6175 19.9774 23.6439C20.103 23.6718 20.2078 23.7882 20.2102 23.9052C20.2129 24.0227 20.4849 24.202 20.8184 24.3079L20.9183 24.3388C21.2514 24.4433 21.6067 24.4467 21.7114 24.3453C21.8156 24.2449 21.9631 24.1839 22.0403 24.2094C22.1174 24.235 22.2001 24.3675 22.2248 24.5047C22.2493 24.6423 22.4609 24.7974 22.6965 24.8502C22.9323 24.9041 23.2285 24.8164 23.3577 24.655C23.4869 24.4934 23.7202 24.3851 23.8786 24.4138C24.0374 24.4417 24.1092 24.5683 24.0397 24.6962C23.9701 24.8243 24.1948 24.9661 24.5403 25.0143C24.8894 25.0615 25.2263 24.9966 25.2959 24.8686C25.3654 24.7407 25.5164 24.6476 25.6329 24.6619C25.7497 24.6757 25.8658 24.7586 25.8923 24.8472C25.9182 24.9359 26.1117 24.988 26.3246 24.9624C26.537 24.9377 26.7754 24.8448 26.8564 24.7569C26.9377 24.6686 27.2886 24.5866 27.627 24.4998C28.326 24.3197 29.4138 23.8106 29.8083 22.3581C30.4077 20.1494 29.7523 20.5276 28.2204 19.2898Z" fill="#0CCDE6"/>
</svg>
